<svg width="100" height="100" viewBox="0 0 100 100" fill="none" xmlns="http://www.w3.org/2000/svg">
<path fill-rule="evenodd" clip-rule="evenodd" d="M30.1926 35.1266C28.17 31.8228 23.0998 33.2618 23.0998 37.1396V73.9255C23.0998 77.4644 20.242 80.3333 16.7167 80.3333C13.1913 80.3333 10.3335 77.4644 10.3335 73.9255V37.1396C10.3335 20.3357 32.3043 14.1001 41.0691 28.4163L59.8155 59.0365C61.6614 62.0515 60.723 65.9978 57.7195 67.8508C54.7161 69.7037 50.7849 68.7617 48.9391 65.7467L30.1926 35.1266Z" fill="#F97C63"/>
<path fill-rule="evenodd" clip-rule="evenodd" d="M69.7853 34.6654C71.8158 31.3824 76.8463 32.8316 76.8463 36.6995V73.9218C76.8463 77.4628 79.6962 80.3333 83.2117 80.3333C86.7272 80.3333 89.5771 77.4628 89.5771 73.9218V36.6995C89.5771 19.9385 67.7782 13.659 58.9796 27.8853L53.6202 36.5508C51.7614 39.5563 52.6734 43.5105 55.6573 45.3828C58.6412 47.2551 62.5671 46.3364 64.4259 43.3309L69.7853 34.6654Z" fill="#F97C63"/>
</svg>
