<svg width="220" height="61" viewBox="0 0 220 61" fill="none" xmlns="http://www.w3.org/2000/svg">
<path d="M188.85 21.358C188.85 20.5392 189.132 19.8994 189.695 19.4388C190.258 18.9782 190.872 18.7479 191.537 18.7479C192.612 18.7479 193.38 19.2853 193.84 20.36L199.828 35.0231C199.982 35.4325 200.263 35.6372 200.673 35.6372C201.082 35.6372 201.364 35.4581 201.517 35.0998L206.661 20.4368C207.07 19.3108 207.863 18.7479 209.041 18.7479C209.757 18.7479 210.397 18.9782 210.96 19.4388C211.574 19.8994 211.881 20.4624 211.881 21.1277C211.881 21.3836 211.804 21.7419 211.651 22.2025L199.905 50.8377C199.496 51.9636 198.702 52.5266 197.525 52.5266C196.86 52.5266 196.22 52.2963 195.606 51.8357C195.043 51.3751 194.761 50.8121 194.761 50.1467C194.761 49.6349 194.838 49.2767 194.992 49.072L198.753 41.395C197.679 41.2926 196.937 40.7808 196.527 39.8596L189.004 22.2793C188.901 21.8698 188.85 21.5628 188.85 21.358Z" fill="#F97C63"/>
<path d="M173.393 42.1627C171.192 42.1627 169.222 41.6509 167.482 40.6273C165.741 39.6037 164.385 38.1962 163.413 36.4049C162.44 34.5625 161.954 32.5153 161.954 30.2633C161.954 28.0626 162.44 26.0922 163.413 24.3521C164.385 22.6119 165.741 21.2557 167.482 20.2833C169.222 19.2597 171.192 18.7479 173.393 18.7479C174.826 18.7479 176.105 19.0038 177.231 19.5156C178.357 19.9762 179.33 20.5903 180.149 21.358C180.251 20.6415 180.558 20.1041 181.07 19.7459C181.582 19.3364 182.145 19.1317 182.759 19.1317C183.424 19.1317 184.013 19.362 184.524 19.8226C185.087 20.2321 185.369 20.8718 185.369 21.7419V39.7828C185.369 40.5505 185.087 41.1391 184.524 41.5485C184.013 41.958 183.424 42.1627 182.759 42.1627C182.093 42.1627 181.479 41.958 180.916 41.5485C180.404 41.1391 180.149 40.5505 180.149 39.7828V39.4757C179.33 40.2946 178.357 40.9344 177.231 41.395C176.105 41.9068 174.826 42.1627 173.393 42.1627ZM173.853 37.4029C175.798 37.4029 177.334 36.7632 178.46 35.4837C179.586 34.153 180.149 32.4129 180.149 30.2633C180.149 28.2162 179.586 26.5784 178.46 25.3501C177.334 24.1218 175.798 23.5076 173.853 23.5076C171.857 23.5076 170.245 24.1218 169.017 25.3501C167.789 26.5784 167.174 28.2162 167.174 30.2633C167.174 32.4129 167.789 34.153 169.017 35.4837C170.245 36.7632 171.857 37.4029 173.853 37.4029Z" fill="#F97C63"/>
<path d="M146.676 42.1627C145.243 42.1627 143.964 41.9068 142.838 41.395C141.712 40.9344 140.739 40.2946 139.921 39.4757V50.1467C139.921 50.9144 139.639 51.503 139.076 51.9124C138.564 52.3219 137.976 52.5266 137.31 52.5266C136.645 52.5266 136.031 52.3219 135.468 51.9124C134.956 51.503 134.7 50.9144 134.7 50.1467V21.7419C134.7 20.8718 134.956 20.2321 135.468 19.8226C136.031 19.362 136.645 19.1317 137.31 19.1317C137.925 19.1317 138.488 19.3364 138.999 19.7459C139.511 20.1041 139.818 20.6415 139.921 21.358C140.739 20.5903 141.712 19.9762 142.838 19.5156C143.964 19.0038 145.243 18.7479 146.676 18.7479C148.928 18.7479 150.899 19.2597 152.588 20.2833C154.328 21.2557 155.684 22.6119 156.656 24.3521C157.629 26.0922 158.115 28.0626 158.115 30.2633C158.115 32.5153 157.629 34.5625 156.656 36.4049C155.684 38.1962 154.328 39.6037 152.588 40.6273C150.899 41.6509 148.928 42.1627 146.676 42.1627ZM146.216 37.4029C148.212 37.4029 149.824 36.7632 151.052 35.4837C152.28 34.153 152.895 32.4129 152.895 30.2633C152.895 28.2161 152.28 26.5784 151.052 25.3501C149.824 24.1218 148.212 23.5076 146.216 23.5076C144.271 23.5076 142.735 24.1218 141.609 25.3501C140.484 26.5784 139.921 28.2161 139.921 30.2633C139.921 32.4129 140.484 34.153 141.609 35.4837C142.735 36.7632 144.271 37.4029 146.216 37.4029Z" fill="#F97C63"/>
<path d="M116.94 42.1627C114.739 42.1627 112.769 41.6509 111.028 40.6273C109.288 39.6037 107.932 38.1962 106.96 36.4049C105.987 34.5625 105.501 32.5153 105.501 30.2633C105.501 28.0626 105.987 26.0922 106.96 24.3521C107.932 22.6119 109.288 21.2557 111.028 20.2833C112.769 19.2597 114.739 18.7479 116.94 18.7479C118.373 18.7479 119.652 19.0038 120.778 19.5156C121.904 19.9762 122.877 20.5903 123.695 21.358C123.798 20.6415 124.105 20.1041 124.617 19.7459C125.128 19.3364 125.691 19.1317 126.306 19.1317C126.971 19.1317 127.56 19.362 128.071 19.8226C128.634 20.2321 128.916 20.8718 128.916 21.7419V39.7828C128.916 40.5505 128.634 41.1391 128.071 41.5485C127.56 41.958 126.971 42.1627 126.306 42.1627C125.64 42.1627 125.026 41.958 124.463 41.5485C123.951 41.1391 123.695 40.5505 123.695 39.7828V39.4757C122.877 40.2946 121.904 40.9344 120.778 41.395C119.652 41.9068 118.373 42.1627 116.94 42.1627ZM117.4 37.4029C119.345 37.4029 120.881 36.7632 122.007 35.4837C123.132 34.153 123.695 32.4129 123.695 30.2633C123.695 28.2162 123.132 26.5784 122.007 25.3501C120.881 24.1218 119.345 23.5076 117.4 23.5076C115.404 23.5076 113.792 24.1218 112.564 25.3501C111.335 26.5784 110.721 28.2162 110.721 30.2633C110.721 32.4129 111.335 34.153 112.564 35.4837C113.792 36.7632 115.404 37.4029 117.4 37.4029Z" fill="#F9F9F9"/>
<path d="M97.2687 42.1631C95.2727 42.1631 93.6349 41.5489 92.3554 40.3206C91.0759 39.0923 90.4362 37.2498 90.4362 34.7932V25.0434C90.4362 24.5316 90.1803 24.2757 89.6685 24.2757H88.2866C87.6213 24.2757 87.0583 24.071 86.5977 23.6615C86.137 23.2009 85.9067 22.6379 85.9067 21.9726C85.9067 21.2561 86.137 20.6675 86.5977 20.2069C87.0583 19.7463 87.6213 19.516 88.2866 19.516H89.6685C90.1803 19.516 90.4362 19.2601 90.4362 18.7483V12.2996C90.4362 11.5831 90.6665 11.0201 91.1271 10.6107C91.6389 10.15 92.253 9.91974 92.9696 9.91974C93.7373 9.91974 94.3514 10.15 94.812 10.6107C95.3238 11.0201 95.5797 11.5831 95.5797 12.2996V18.7483C95.5797 19.2601 95.8356 19.516 96.3474 19.516H100.493C101.107 19.516 101.645 19.7463 102.105 20.2069C102.566 20.6675 102.796 21.2561 102.796 21.9726C102.796 22.6379 102.566 23.2009 102.105 23.6615C101.696 24.071 101.133 24.2757 100.416 24.2757H96.3474C95.8356 24.2757 95.5797 24.5316 95.5797 25.0434V34.1022C95.5797 36.2518 96.4498 37.3266 98.1899 37.3266C98.7017 37.3266 99.2391 37.2498 99.8021 37.0963C100.365 36.9427 100.749 36.866 100.954 36.866C101.67 36.866 102.208 37.0963 102.566 37.5569C102.975 38.0175 103.18 38.5549 103.18 39.1691C103.18 39.6297 103.052 40.0903 102.796 40.5509C102.54 40.9604 102.131 41.2674 101.568 41.4722C101.005 41.6769 100.288 41.8304 99.4182 41.9328C98.5994 42.0863 97.8828 42.1631 97.2687 42.1631Z" fill="#F9F9F9"/>
<path d="M79.658 42.1626C78.9927 42.1626 78.3785 41.9579 77.8155 41.5484C77.3038 41.139 77.0479 40.5504 77.0479 39.7827V10.6102C77.0479 9.74012 77.3038 9.10037 77.8155 8.69093C78.3785 8.23031 78.9927 8 79.658 8C80.3234 8 80.9119 8.23031 81.4237 8.69093C81.9867 9.10037 82.2682 9.74012 82.2682 10.6102V39.7827C82.2682 40.5504 81.9867 41.139 81.4237 41.5484C80.9119 41.9579 80.3234 42.1626 79.658 42.1626Z" fill="#F9F9F9"/>
<path d="M66.1004 21.2813C66.1004 20.5648 66.3307 19.9762 66.7913 19.5156C67.3031 19.0038 67.9429 18.7479 68.7106 18.7479C69.4271 18.7479 70.0413 19.0038 70.5531 19.5156C71.0649 19.9762 71.3208 20.5648 71.3208 21.2813V32.1058C71.3208 34.4089 70.809 36.3026 69.7854 37.7868C68.7618 39.271 67.4311 40.3714 65.7933 41.0879C64.1556 41.8044 62.4155 42.1627 60.573 42.1627C58.7305 42.1627 56.9904 41.8044 55.3526 41.0879C53.7149 40.3714 52.3842 39.271 51.3606 37.7868C50.337 36.3026 49.8252 34.4089 49.8252 32.1058V21.2813C49.8252 20.5648 50.0555 19.9762 50.5161 19.5156C51.0279 19.0038 51.6677 18.7479 52.4354 18.7479C53.1519 18.7479 53.766 19.0038 54.2778 19.5156C54.7896 19.9762 55.0455 20.5648 55.0455 21.2813V32.1058C55.0455 33.9995 55.6085 35.3557 56.7345 36.1746C57.8604 36.9935 59.1399 37.4029 60.573 37.4029C62.0572 37.4029 63.3367 36.9935 64.4115 36.1746C65.5374 35.3557 66.1004 33.9995 66.1004 32.1058V21.2813Z" fill="#F9F9F9"/>
<path d="M10.6102 42.1627C9.94484 42.1627 9.33068 41.958 8.7677 41.5485C8.2559 41.1391 8 40.5505 8 39.7828V21.7419C8 20.8718 8.2559 20.2321 8.7677 19.8226C9.33068 19.362 9.94484 19.1317 10.6102 19.1317C11.122 19.1317 11.6082 19.2597 12.0688 19.5156C12.5294 19.7203 12.8621 20.1041 13.0668 20.6671C13.1692 20.9742 13.2204 21.2557 13.2204 21.5116C13.988 20.6927 14.9861 20.0274 16.2144 19.5156C17.4427 19.0038 18.6454 18.7479 19.8226 18.7479C23.1493 18.7479 25.6059 20.0785 27.1925 22.7399C27.8066 21.6651 28.8046 20.7439 30.1865 19.9762C31.6195 19.1573 33.3596 18.7479 35.4068 18.7479C38.1706 18.7479 40.3713 19.6691 42.0091 21.5116C43.6468 23.3541 44.4657 26.0666 44.4657 29.6492V39.7828C44.4657 40.5505 44.1842 41.1391 43.6212 41.5485C43.0582 41.958 42.4697 42.1627 41.8555 42.1627C41.1902 42.1627 40.576 41.958 40.013 41.5485C39.5012 41.1391 39.2453 40.5505 39.2453 39.7828V30.1098C39.2453 25.7083 37.6076 23.5076 34.3321 23.5076C32.4896 23.5076 31.1589 23.9938 30.34 24.9662C29.5212 25.9386 29.0094 27.0902 28.8046 28.4209V39.7828C28.8046 40.5505 28.5231 41.1391 27.9602 41.5485C27.3972 41.958 26.8086 42.1627 26.1945 42.1627C25.5291 42.1627 24.915 41.958 24.352 41.5485C23.8402 41.1391 23.5843 40.5505 23.5843 39.7828V30.1098C23.5843 27.8579 23.1493 26.1945 22.2792 25.1198C21.4091 24.045 20.232 23.5076 18.7478 23.5076C16.547 23.5076 15.0628 24.1985 14.2951 25.5804C13.5786 26.9111 13.2204 28.3953 13.2204 30.033V39.7828C13.2204 40.5505 12.9389 41.1391 12.3759 41.5485C11.8641 41.958 11.2755 42.1627 10.6102 42.1627Z" fill="#F9F9F9"/>
</svg>
