<svg width="220" height="61" viewBox="0 0 220 61" fill="none" xmlns="http://www.w3.org/2000/svg">
<path d="M188.85 21.358C188.85 20.5392 189.132 19.8994 189.695 19.4388C190.258 18.9782 190.872 18.7479 191.537 18.7479C192.612 18.7479 193.38 19.2853 193.84 20.36L199.828 35.0231C199.982 35.4325 200.263 35.6372 200.673 35.6372C201.082 35.6372 201.364 35.4581 201.517 35.0998L206.661 20.4368C207.07 19.3108 207.863 18.7479 209.041 18.7479C209.757 18.7479 210.397 18.9782 210.96 19.4388C211.574 19.8994 211.881 20.4624 211.881 21.1277C211.881 21.3836 211.804 21.7419 211.651 22.2025L199.905 50.8377C199.496 51.9636 198.702 52.5266 197.525 52.5266C196.86 52.5266 196.22 52.2963 195.606 51.8357C195.043 51.3751 194.761 50.8121 194.761 50.1467C194.761 49.6349 194.838 49.2767 194.992 49.072L198.753 41.395C197.679 41.2926 196.937 40.7808 196.527 39.8596L189.004 22.2793C188.901 21.8698 188.85 21.5628 188.85 21.358Z" fill="#F97C63"/>
<path d="M173.393 42.1627C171.192 42.1627 169.221 41.6509 167.481 40.6273C165.741 39.6037 164.385 38.1962 163.412 36.4049C162.44 34.5625 161.954 32.5153 161.954 30.2633C161.954 28.0626 162.44 26.0922 163.412 24.3521C164.385 22.6119 165.741 21.2557 167.481 20.2833C169.221 19.2597 171.192 18.7479 173.393 18.7479C174.826 18.7479 176.105 19.0038 177.231 19.5156C178.357 19.9762 179.329 20.5903 180.148 21.358C180.251 20.6415 180.558 20.1041 181.07 19.7459C181.581 19.3364 182.144 19.1317 182.759 19.1317C183.424 19.1317 184.012 19.362 184.524 19.8226C185.087 20.2321 185.369 20.8718 185.369 21.7419V39.7828C185.369 40.5505 185.087 41.1391 184.524 41.5485C184.012 41.958 183.424 42.1627 182.759 42.1627C182.093 42.1627 181.479 41.958 180.916 41.5485C180.404 41.1391 180.148 40.5505 180.148 39.7828V39.4757C179.329 40.2946 178.357 40.9344 177.231 41.395C176.105 41.9068 174.826 42.1627 173.393 42.1627ZM173.853 37.4029C175.798 37.4029 177.333 36.7632 178.459 35.4837C179.585 34.153 180.148 32.4129 180.148 30.2633C180.148 28.2162 179.585 26.5784 178.459 25.3501C177.333 24.1218 175.798 23.5076 173.853 23.5076C171.857 23.5076 170.245 24.1218 169.017 25.3501C167.788 26.5784 167.174 28.2162 167.174 30.2633C167.174 32.4129 167.788 34.153 169.017 35.4837C170.245 36.7632 171.857 37.4029 173.853 37.4029Z" fill="#F97C63"/>
<path d="M146.676 42.1627C145.243 42.1627 143.964 41.9068 142.838 41.395C141.712 40.9344 140.739 40.2946 139.921 39.4757V50.1467C139.921 50.9144 139.639 51.503 139.076 51.9124C138.564 52.3219 137.976 52.5266 137.31 52.5266C136.645 52.5266 136.031 52.3219 135.468 51.9124C134.956 51.503 134.7 50.9144 134.7 50.1467V21.7419C134.7 20.8718 134.956 20.2321 135.468 19.8226C136.031 19.362 136.645 19.1317 137.31 19.1317C137.925 19.1317 138.488 19.3364 138.999 19.7459C139.511 20.1041 139.818 20.6415 139.921 21.358C140.739 20.5903 141.712 19.9762 142.838 19.5156C143.964 19.0038 145.243 18.7479 146.676 18.7479C148.928 18.7479 150.899 19.2597 152.588 20.2833C154.328 21.2557 155.684 22.6119 156.656 24.3521C157.629 26.0922 158.115 28.0626 158.115 30.2633C158.115 32.5153 157.629 34.5625 156.656 36.4049C155.684 38.1962 154.328 39.6037 152.588 40.6273C150.899 41.6509 148.928 42.1627 146.676 42.1627ZM146.216 37.4029C148.212 37.4029 149.824 36.7632 151.052 35.4837C152.28 34.153 152.895 32.4129 152.895 30.2633C152.895 28.2161 152.28 26.5784 151.052 25.3501C149.824 24.1218 148.212 23.5076 146.216 23.5076C144.271 23.5076 142.735 24.1218 141.609 25.3501C140.484 26.5784 139.921 28.2161 139.921 30.2633C139.921 32.4129 140.484 34.153 141.609 35.4837C142.735 36.7632 144.271 37.4029 146.216 37.4029Z" fill="#F97C63"/>
<path d="M116.94 42.1627C114.739 42.1627 112.769 41.6509 111.028 40.6273C109.288 39.6037 107.932 38.1962 106.96 36.4049C105.987 34.5625 105.501 32.5153 105.501 30.2633C105.501 28.0626 105.987 26.0922 106.96 24.3521C107.932 22.6119 109.288 21.2557 111.028 20.2833C112.769 19.2597 114.739 18.7479 116.94 18.7479C118.373 18.7479 119.652 19.0038 120.778 19.5156C121.904 19.9762 122.877 20.5903 123.695 21.358C123.798 20.6415 124.105 20.1041 124.617 19.7459C125.128 19.3364 125.691 19.1317 126.306 19.1317C126.971 19.1317 127.56 19.362 128.071 19.8226C128.634 20.2321 128.916 20.8718 128.916 21.7419V39.7828C128.916 40.5505 128.634 41.1391 128.071 41.5485C127.56 41.958 126.971 42.1627 126.306 42.1627C125.64 42.1627 125.026 41.958 124.463 41.5485C123.951 41.1391 123.695 40.5505 123.695 39.7828V39.4757C122.877 40.2946 121.904 40.9344 120.778 41.395C119.652 41.9068 118.373 42.1627 116.94 42.1627ZM117.4 37.4029C119.345 37.4029 120.881 36.7632 122.007 35.4837C123.132 34.153 123.695 32.4129 123.695 30.2633C123.695 28.2162 123.132 26.5784 122.007 25.3501C120.881 24.1218 119.345 23.5076 117.4 23.5076C115.404 23.5076 113.792 24.1218 112.564 25.3501C111.335 26.5784 110.721 28.2162 110.721 30.2633C110.721 32.4129 111.335 34.153 112.564 35.4837C113.792 36.7632 115.404 37.4029 117.4 37.4029Z" fill="#2C3845"/>
<path d="M97.2684 42.1631C95.2724 42.1631 93.6347 41.5489 92.3552 40.3206C91.0757 39.0923 90.4359 37.2498 90.4359 34.7932V25.0434C90.4359 24.5316 90.18 24.2757 89.6682 24.2757H88.2864C87.621 24.2757 87.058 24.071 86.5974 23.6615C86.1368 23.2009 85.9065 22.6379 85.9065 21.9726C85.9065 21.2561 86.1368 20.6675 86.5974 20.2069C87.058 19.7463 87.621 19.516 88.2864 19.516H89.6682C90.18 19.516 90.4359 19.2601 90.4359 18.7483V12.2996C90.4359 11.5831 90.6662 11.0201 91.1268 10.6107C91.6386 10.15 92.2528 9.91974 92.9693 9.91974C93.737 9.91974 94.3512 10.15 94.8118 10.6107C95.3236 11.0201 95.5795 11.5831 95.5795 12.2996V18.7483C95.5795 19.2601 95.8354 19.516 96.3472 19.516H100.493C101.107 19.516 101.644 19.7463 102.105 20.2069C102.566 20.6675 102.796 21.2561 102.796 21.9726C102.796 22.6379 102.566 23.2009 102.105 23.6615C101.695 24.071 101.133 24.2757 100.416 24.2757H96.3472C95.8354 24.2757 95.5795 24.5316 95.5795 25.0434V34.1022C95.5795 36.2518 96.4496 37.3266 98.1897 37.3266C98.7015 37.3266 99.2389 37.2498 99.8018 37.0963C100.365 36.9427 100.749 36.866 100.953 36.866C101.67 36.866 102.207 37.0963 102.566 37.5569C102.975 38.0175 103.18 38.5549 103.18 39.1691C103.18 39.6297 103.052 40.0903 102.796 40.5509C102.54 40.9604 102.131 41.2674 101.568 41.4722C101.005 41.6769 100.288 41.8304 99.418 41.9328C98.5991 42.0863 97.8826 42.1631 97.2684 42.1631Z" fill="#2C3845"/>
<path d="M79.658 42.1626C78.9927 42.1626 78.3785 41.9579 77.8155 41.5484C77.3038 41.139 77.0479 40.5504 77.0479 39.7827V10.6102C77.0479 9.74012 77.3038 9.10037 77.8155 8.69093C78.3785 8.23031 78.9927 8 79.658 8C80.3234 8 80.9119 8.23031 81.4237 8.69093C81.9867 9.10037 82.2682 9.74012 82.2682 10.6102V39.7827C82.2682 40.5504 81.9867 41.139 81.4237 41.5484C80.9119 41.9579 80.3234 42.1626 79.658 42.1626Z" fill="#2C3845"/>
<path d="M66.1002 21.2813C66.1002 20.5648 66.3305 19.9762 66.7911 19.5156C67.3029 19.0038 67.9426 18.7479 68.7103 18.7479C69.4269 18.7479 70.041 19.0038 70.5528 19.5156C71.0646 19.9762 71.3205 20.5648 71.3205 21.2813V32.1058C71.3205 34.4089 70.8087 36.3026 69.7851 37.7868C68.7615 39.271 67.4308 40.3714 65.7931 41.0879C64.1553 41.8044 62.4152 42.1627 60.5727 42.1627C58.7303 42.1627 56.9901 41.8044 55.3524 41.0879C53.7146 40.3714 52.3839 39.271 51.3603 37.7868C50.3367 36.3026 49.825 34.4089 49.825 32.1058V21.2813C49.825 20.5648 50.0553 19.9762 50.5159 19.5156C51.0277 19.0038 51.6674 18.7479 52.4351 18.7479C53.1516 18.7479 53.7658 19.0038 54.2776 19.5156C54.7894 19.9762 55.0453 20.5648 55.0453 21.2813V32.1058C55.0453 33.9995 55.6083 35.3557 56.7342 36.1746C57.8602 36.9935 59.1397 37.4029 60.5727 37.4029C62.057 37.4029 63.3364 36.9935 64.4112 36.1746C65.5372 35.3557 66.1002 33.9995 66.1002 32.1058V21.2813Z" fill="#2C3845"/>
<path d="M10.6102 42.1627C9.94484 42.1627 9.33068 41.958 8.7677 41.5485C8.2559 41.1391 8 40.5505 8 39.7828V21.7419C8 20.8718 8.2559 20.2321 8.7677 19.8226C9.33068 19.362 9.94484 19.1317 10.6102 19.1317C11.122 19.1317 11.6082 19.2597 12.0688 19.5156C12.5294 19.7203 12.8621 20.1041 13.0668 20.6671C13.1692 20.9742 13.2204 21.2557 13.2204 21.5116C13.988 20.6927 14.9861 20.0274 16.2144 19.5156C17.4427 19.0038 18.6454 18.7479 19.8226 18.7479C23.1493 18.7479 25.6059 20.0785 27.1925 22.7399C27.8066 21.6651 28.8046 20.7439 30.1865 19.9762C31.6195 19.1573 33.3596 18.7479 35.4068 18.7479C38.1706 18.7479 40.3713 19.6691 42.0091 21.5116C43.6468 23.3541 44.4657 26.0666 44.4657 29.6492V39.7828C44.4657 40.5505 44.1842 41.1391 43.6212 41.5485C43.0582 41.958 42.4697 42.1627 41.8555 42.1627C41.1902 42.1627 40.576 41.958 40.013 41.5485C39.5012 41.1391 39.2453 40.5505 39.2453 39.7828V30.1098C39.2453 25.7083 37.6076 23.5076 34.3321 23.5076C32.4896 23.5076 31.1589 23.9938 30.34 24.9662C29.5212 25.9386 29.0094 27.0902 28.8046 28.4209V39.7828C28.8046 40.5505 28.5231 41.1391 27.9602 41.5485C27.3972 41.958 26.8086 42.1627 26.1945 42.1627C25.5291 42.1627 24.915 41.958 24.352 41.5485C23.8402 41.1391 23.5843 40.5505 23.5843 39.7828V30.1098C23.5843 27.8579 23.1493 26.1945 22.2792 25.1198C21.4091 24.045 20.232 23.5076 18.7478 23.5076C16.547 23.5076 15.0628 24.1985 14.2951 25.5804C13.5786 26.9111 13.2204 28.3953 13.2204 30.033V39.7828C13.2204 40.5505 12.9389 41.1391 12.3759 41.5485C11.8641 41.958 11.2755 42.1627 10.6102 42.1627Z" fill="#2C3845"/>
</svg>
